<?xml version="1.0" encoding="utf-8"?>
<!-- Generator: Adobe Illustrator 16.0.0, SVG Export Plug-In . SVG Version: 6.00 Build 0)  -->
<!DOCTYPE svg PUBLIC "-//W3C//DTD SVG 1.1//EN" "http://www.w3.org/Graphics/SVG/1.1/DTD/svg11.dtd">
<svg version="1.1" id="Capa_1" xmlns="http://www.w3.org/2000/svg" xmlns:xlink="http://www.w3.org/1999/xlink" x="0px" y="0px"
	 width="300.001px" height="300px" viewBox="0 0 300.001 300" enable-background="new 0 0 300.001 300" xml:space="preserve">
<g>
	<defs>
		<rect id="SVGID_29_" x="11.751" y="1" width="276.499" height="298"/>
	</defs>
	<clipPath id="SVGID_2_">
		<use xlink:href="#SVGID_29_"  overflow="visible"/>
	</clipPath>
	<path clip-path="url(#SVGID_2_)" fill="#B7CD1F" d="M148.957,63.071c77.401,0,133.94-13.896,133.94-31.036
		c0-17.134-56.539-31.034-133.94-31.034c-77.41,0-133.948,13.893-133.948,31.034C15.004,49.183,71.547,63.071,148.957,63.071"/>
	<path clip-path="url(#SVGID_2_)" fill="#B7CD1F" d="M247.523,186.818c14.274,0,26.854,5.646,36.404,14.781
		c0.523-0.43,1.122-0.873,1.122-1.297v-67.527c-24.832,13.451-81.338,20.416-136.576,20.416
		c-55.249-0.004-111.748-6.965-136.58-20.416v67.527c6.208,10.463,60.648,23.268,136.925,23.268c17.662,0,33.981-0.703,48.754-1.898
		C205.046,201.346,224.607,186.818,247.523,186.818"/>
	<path clip-path="url(#SVGID_2_)" fill="#B7CD1F" d="M194.324,240.037c0-2.381,0.197-4.705,0.508-7.006
		c-14.896,1.09-30.537,1.654-46.014,1.654c-55.259,0-112.093-6.957-136.925-20.408v53.17c0,0.41-0.143,0.82-0.143,1.236
		c0,0.418,0.143,0.828,0.143,1.244v0.049c0,14.832,63.243,29.023,136.925,29.023c33.262,0,63.233-2.727,86.608-7.154
		C211.839,286.379,194.324,265.279,194.324,240.037"/>
	<path clip-path="url(#SVGID_2_)" fill="#B7CD1F" d="M285.05,118.801V51.082c-24.832,14.752-79.644,22.392-136.576,22.392
		c-56.923,0-111.748-7.64-136.58-22.396v67.724c6.208,10.459,60.304,23.26,136.58,23.26
		C224.755,142.061,278.838,129.26,285.05,118.801"/>
	<path clip-path="url(#SVGID_2_)" fill="#B7CD1F" d="M248.997,280.699c-5.214,0-9.429-4.223-9.429-9.43l-0.172-58.434
		c0.008-5.205,4.248-9.424,9.437-9.436c5.214,0.004,9.429,4.219,9.437,9.436l0.172,58.434
		C258.426,276.469,254.186,280.699,248.997,280.699"/>
	<path clip-path="url(#SVGID_2_)" fill="#B7CD1F" d="M217.511,252.232c-5.197,0.016-9.437-2.914-9.42-8.119
		c-0.017-5.205,4.223-8.135,9.428-8.135h61.304c5.196,0,9.428,2.93,9.428,8.135c-0.008,5.189-4.231,8.775-9.428,8.791
		L217.511,252.232z"/>
</g>
</svg>
